<?xml version="1.0" standalone="no"?>
<!DOCTYPE svg PUBLIC "-//W3C//DTD SVG 20010904//EN"
 "http://www.w3.org/TR/2001/REC-SVG-20010904/DTD/svg10.dtd">
<svg version="1.0" xmlns="http://www.w3.org/2000/svg"
 width="500.000000pt" height="500.000000pt" viewBox="0 0 500.000000 500.000000"
 preserveAspectRatio="xMidYMid meet">

<g transform="translate(0.000000,500.000000) scale(0.100000,-0.100000)"
fill="#000000" stroke="none">
<path d="M2210 4976 c-473 -60 -887 -236 -1255 -533 -476 -384 -797 -937 -906
-1558 -20 -112 -23 -165 -23 -385 0 -220 3 -273 22 -385 92 -526 332 -995 697
-1361 144 -144 237 -221 404 -332 446 -296 1019 -447 1536 -403 501 42 914
199 1310 495 136 102 348 309 446 436 360 465 542 985 541 1550 0 454 -123
893 -361 1288 -246 409 -610 743 -1036 952 -230 113 -459 186 -705 225 -142
23 -527 29 -670 11z m-509 -1099 c108 -100 407 -377 665 -616 607 -562 647
-603 664 -663 16 -61 7 -120 -28 -180 -26 -45 -185 -180 -791 -672 -94 -76
-185 -154 -201 -172 -86 -98 -44 -221 88 -257 31 -9 167 -38 302 -66 135 -28
414 -86 620 -130 206 -44 476 -100 600 -126 230 -47 271 -58 254 -67 -9 -5
-128 19 -899 183 -258 55 -567 120 -687 144 -265 54 -283 59 -340 100 -113 82
-124 257 -23 376 13 17 80 76 149 132 236 194 661 550 699 586 59 55 90 124
90 196 0 106 -12 121 -336 424 -284 266 -752 711 -946 898 -169 163 -83 99
120 -90z"/>
</g>
</svg>
